<svg fill="none" height="44" viewBox="0 0 39 44" width="39" xmlns="http://www.w3.org/2000/svg" xmlns:xlink="http://www.w3.org/1999/xlink"><linearGradient id="a" gradientUnits="userSpaceOnUse" x1="-.000001" x2="42.6456" y1="43" y2="5.50912"><stop offset="0" stop-color="#ffe7e0"/><stop offset=".34375" stop-color="#f8dbf4"/><stop offset=".6875" stop-color="#c4ddff"/><stop offset="1" stop-color="#cae9ff"/></linearGradient><g fill="url(#a)"><path d="m13.4081 29.6104c-3.0674 0-5.55387 1.4403-5.55387 3.217 0 1.7769 2.48647 3.2172 5.55387 3.2172 3.0673 0 5.554-1.4403 5.554-3.2172 0-1.7767-2.4867-3.217-5.554-3.217zm-2.6287 3.5458c-.4753.2333-.9178 0-1.0027-.529-.09303-.5667.6662-1.9138.841-.8952.1746 1.0185.9521-.4057.9568.2317-.026.5146-.3315.973-.7951 1.1925zm6.26-.529c-.0849.529-.5275.7623-1.0026.529-.4636-.2195-.7692-.6779-.7951-1.1925.0047-.6374.782.7868.9567-.2317.1748-1.0186.9339.3285.841.8952z"/><path d="m16.9099 21.9193c-.0257.0044-.0497-.0176-.0444-.0433.0509-.2566.0877-.9508-.4009-1.1011-.3126-.0961-.5186.0813-.6409.2603-.0547.0803-.2185.4274-.3203.6682-.0549.1302-.1827.3204-.3232.317-.5889-.1845-1.1805-.2768-1.7721-.2768-.5915 0-1.1832.0923-1.7722.2768-.1403.0034-.2681-.1868-.323-.317-.1018-.2408-.2657-.5879-.3205-.6682-.1222-.179-.3282-.3564-.6406-.2603-.48879.1503-.45195.8444-.40095 1.1011.00508.0257-.01889.0477-.04451.0433-.50048-.0866-4.35274-.9036-4.51225.242-.15124 1.0866 1.21502 2.5853 2.64444 3.2588.13802.0649.2477.1748.38136.248.22503.123.35927.4306.32633.7078v3.8824c1.12717-.7976 2.78398-1.2938 4.66188-1.2938s3.5349.4962 4.662 1.294v-3.8826c-.0329-.2772.1012-.5848.3261-.7078.1339-.0732.2435-.1831.3815-.248 1.4294-.6735 2.7957-2.1722 2.6443-3.2588-.1592-1.1456-4.0115-.3286-4.5121-.242zm-5.032 4.6956c-.4032.102-.8227.14-1.2377.1144-.0975-.0062-.1954-.0226-.2858-.0597-.1651-.0675-.3047-.1838-.40851-.3369-.14014-.2001-.20697-.4229-.16423-.6635.0418-.241.18017-.4273.37984-.5669.1497-.1083.3204-.1695.4985-.1761.0976-.0036.1951.0145.2887.0424.3989.1184.7802.2986 1.1244.5332.4904.3384.6473.5875.6311.6858-.0181.0979-.2503.2781-.8263.4273zm4.9924-.2822c-.1037.1531-.2433.2694-.4085.3369-.0904.0371-.1883.0535-.2858.0597-.415.0256-.8346-.0124-1.2377-.1144-.5759-.1492-.8081-.3294-.8263-.4273-.0162-.0983.1407-.3474.6312-.6858.3442-.2346.7255-.4148 1.1243-.5332.0936-.0279.1911-.046.2888-.0424.1782.0066.3489.0678.4983.1761.1998.1396.3383.3259.38.5669.0427.2406-.0241.4634-.1643.6635z"/><path d="m37.5361 13.5014-5.667-6.85269c-.2075-.25063-.3216-.56872-.3216-.89465l.0005-4.59548c0-.638799-.5163-1.15858-1.1513-1.15858h-23.08652c-.63496 0-1.15114.519781-1.15114 1.15858v5.10623l-.02704.03302-5.871074 7.20997c-.1681282.2064-.260926.4673-.260926.734v27.5996c0 .6388.516658 1.1586 1.15114 1.1586h35.49926c.635 0 1.1517-.5198 1.1517-1.1586l.0003-27.5996c0-.2698-.0944-.533-.2663-.7404zm-13.0175 26.0866c0 .6074-.4913 1.1008-1.0942 1.1008h-20.03295c-.60367 0-1.094-.4943-1.094-1.1008v-23.0898c0-.6072.49115-1.1015 1.094-1.1015h20.03295c.6037 0 1.0942.4943 1.0942 1.1015zm3.2265-30.77025-2.5255 4.13865c-.0485.0796-.1362.1297-.2295.1297l-20.84621-.0005c-.10496 0-.19859-.0591-.24369-.1552-.04499-.0962-.03165-.2061.0353-.2877l3.37031-4.13913c.05136-.06295.12728-.0993.20792-.0993l20.00197.00048c.0987 0 .1864.05203.235.13874.0478.08659.0461.18909-.0056.27426zm1.5051-3.30006c0 .31714-.2571.57572-.5724.57572h-19.64881c-.31536 0-.57238-.25858-.57238-.57572v-2.63062c0-.31762.25702-.57573.57238-.57573h19.64991c.3153 0 .5722.25847.5722.57573z"/></g></svg>