<svg fill="none" height="54" width="169" xmlns="http://www.w3.org/2000/svg"><g fill="#052b65"><path clip-rule="evenodd" d="m42.206 4.03c3.2-.588 15.17-2.786 15.704.96.546 3.836-4.387 9.126-9.548 11.504-.272.125-.513.297-.755.47-.201.144-.402.288-.622.405-.812.435-1.296 1.52-1.177 2.499v13.706c-4.07-2.816-10.052-4.568-16.832-4.568s-12.762 1.752-16.832 4.568v-13.706c.119-.979-.366-2.064-1.178-2.499a5.723 5.723 0 0 1 -.62-.404c-.242-.173-.484-.346-.757-.471-5.161-2.378-10.093-7.668-9.548-11.504.534-3.746 12.507-1.548 15.705-.96.254.046.453.083.587.105.092.016.179-.062.16-.153-.184-.906-.317-3.356 1.448-3.886 1.128-.34 1.872.286 2.313.918.198.284.79 1.509 1.157 2.36.198.459.66 1.13 1.166 1.118a21.77 21.77 0 0 1 6.399-.977c2.136 0 4.272.326 6.398.977.507.012.968-.66 1.167-1.119.367-.85.959-2.075 1.156-2.359.442-.632 1.186-1.258 2.314-.918 1.764.53 1.631 2.98 1.447 3.886-.018.09.068.169.16.153.134-.022.334-.059.588-.106zm-15.772 15.172c.06-.347-.508-1.226-2.278-2.42a14.76 14.76 0 0 0 -4.06-1.883 3.329 3.329 0 0 0 -1.042-.15c-.643.024-1.26.24-1.8.622-.721.492-1.22 1.15-1.371 2-.155.85.086 1.637.593 2.343.374.54.878.951 1.474 1.19.327.13.68.188 1.032.21 1.499.091 3.013-.043 4.47-.403 2.078-.527 2.917-1.163 2.982-1.509zm13.567 1.702a3.267 3.267 0 0 0 1.475-1.19c.506-.706.747-1.492.593-2.342-.15-.85-.65-1.509-1.372-2.001a3.312 3.312 0 0 0 -1.8-.622 3.329 3.329 0 0 0 -1.042.15 14.755 14.755 0 0 0 -4.06 1.882c-1.77 1.195-2.336 2.074-2.278 2.421.066.346.904.982 2.983 1.509 1.456.36 2.97.494 4.47.403.351-.022.705-.08 1.031-.21z" fill-rule="evenodd"/><path clip-rule="evenodd" d="m8.924 42.643c0-6.272 8.977-11.357 20.052-11.357 11.074 0 20.052 5.085 20.052 11.357s-8.977 11.357-20.052 11.357-20.052-5.084-20.052-11.357zm6.94-.707c.307 1.868 1.905 2.691 3.62 1.868a4.93 4.93 0 0 0 2.872-4.21c-.008-.963-.526-.593-1.166-.137-.855.61-1.928 1.376-2.29-.681-.63-3.596-3.371 1.16-3.035 3.16zm22.602 1.868c1.716.823 3.314 0 3.62-1.868.336-2-2.405-6.756-3.036-3.16-.36 2.057-1.434 1.291-2.29.68-.639-.456-1.157-.825-1.164.138a4.927 4.927 0 0 0 2.87 4.21z" fill-rule="evenodd"/><path d="m70.695 11.915c.648-.552 1.758-.828 3.331-.828h13.66a2.847 2.847 0 0 0 2.852-2.843 2.848 2.848 0 0 0 -2.852-2.844h-13.426c-7.465 0-11.197 3.025-11.197 9.074v.207c0 2.964.91 5.2 2.734 6.708 1.823 1.508 4.644 2.262 8.463 2.262h13.427a2.847 2.847 0 0 0 2.852-2.843 2.848 2.848 0 0 0 -2.852-2.844h-13.66c-1.555 0-2.661-.276-3.318-.827-.657-.552-.985-1.379-.985-2.482v-.207c0-1.138.324-1.982.972-2.533zm44.995-6.438-3.248 5.61h1.631c1.572 0 2.683.277 3.331.828.648.552.972 1.396.972 2.533v.207c0 1.103-.329 1.93-.985 2.482-.657.552-1.763.827-3.318.827h-5.612l-3.292 5.688h8.671c3.818 0 6.639-.754 8.463-2.263 1.823-1.508 2.735-3.744 2.735-6.708v-.207c0-5.524-3.123-8.517-9.348-8.997zm-5.805 5.61 3.293-5.687h-8.383c-7.465 0-11.198 3.025-11.198 9.074v.207c0 2.964.911 5.2 2.735 6.708 1.464 1.212 3.584 1.928 6.336 2.166l3.237-5.591h-1.343c-1.555 0-2.662-.276-3.318-.827-.657-.552-.985-1.379-.985-2.482v-.207c0-1.138.324-1.982.972-2.533.648-.552 1.758-.828 3.331-.828m60.523-5.687c-1.089 0-2.106.54-2.714 1.44l-3.223 4.774c-1.229 1.82-3.873 1.936-5.257.23l-3.44-4.242a3.277 3.277 0 0 0 -5.087 0l-3.44 4.242c-1.384 1.706-4.028 1.59-5.257-.23l-3.223-4.774a3.274 3.274 0 0 0 -2.714-1.44c-2.631 0-4.185 2.94-2.699 5.105l8.05 11.727c1.24 1.806 3.877 1.906 5.251.198l4.024-5.001a3.277 3.277 0 0 1 5.103 0l4.024 5.002c1.374 1.707 4.011 1.607 5.251-.2l8.05-11.726c1.486-2.165-.068-5.105-2.699-5.105zm-93.521 33.971v2.018h5.193v3.926c-1.342.996-2.978 1.378-4.775 1.378-3.999 0-6.644-2.966-6.644-7.002 0-4.282 2.793-7.05 6.558-7.05 2.092 0 3.864.689 5.279 2.067l1.575-1.353c-1.895-1.994-4.393-2.818-6.83-2.818-5.376 0-8.858 3.839-8.858 9.142 0 5.562 3.802 9.056 8.933 9.056 2.756 0 5.29-.849 6.964-2.276v-7.088zm17.264-3.174c-1.662 0-3.077.837-3.987 2.288h-.05v-2.14h-2.041v12.255h2.043v-5.906c0-2.461 1.402-4.258 3.728-4.258.21 0 .517.013.812.037v-2.252c-.148-.024-.32-.024-.504-.024zm12.058.147v1.81h-.049c-1.021-1.28-2.535-1.957-4.208-1.957-3.47 0-6.005 2.731-6.005 6.35 0 3.764 2.633 6.213 6.017 6.213 1.809 0 3.31-.788 4.307-2.104h.024v1.944h1.957v-12.268zm-4.048 10.546c-2.498 0-4.134-1.858-4.134-4.332 0-2.731 1.82-4.503 4.159-4.503 2.35 0 4.097 1.98 4.097 4.503 0 2.597-1.92 4.332-4.122 4.332zm16.39-10.693c-1.809 0-3.421.8-4.442 2.252h-.037v-2.105h-2.043v12.256h2.043v-6.115c0-2.757 1.538-4.418 3.851-4.418 1.797 0 3.003.96 3.003 3.84v6.705h2.042v-7.272c0-3.519-1.759-5.143-4.405-5.143zm11.554 12.563c1.452 0 2.301-.37 2.965-.75l-.541-1.785c-.578.332-1.341.628-2.067.628-1.157 0-1.501-.726-1.501-2.203v-6.534h4.06v-1.772h-4.06v-4.417l-2.043.222v4.195h-1.563v1.772h1.563v6.842c0 2.473 1.009 3.814 3.187 3.814zm9.45 0c2.953 0 4.405-1.587 4.405-3.52.012-2.386-1.698-2.83-4.282-3.826-1.317-.504-2.326-.972-2.326-1.932 0-.886.948-1.44 1.883-1.44 1.046 0 2.178.345 3.261 1.28l1.058-1.612c-1.366-1.12-2.744-1.513-4.221-1.513-2.338 0-4.06 1.415-4.06 3.285 0 2.252 1.686 3.076 3.691 3.778 1.784.627 2.929.96 2.929 2.018 0 .898-.862 1.636-2.338 1.636-1.723 0-2.793-.566-3.741-1.464l-1.07 1.55c1.206 1.07 2.793 1.772 4.811 1.772z"/></g></svg>